<?xml version="1.0" standalone="no"?><!DOCTYPE svg PUBLIC "-//W3C//DTD SVG 1.1//EN" "http://www.w3.org/Graphics/SVG/1.1/DTD/svg11.dtd"><svg t="1629003702164" class="icon" viewBox="0 0 1024 1024" version="1.1" xmlns="http://www.w3.org/2000/svg" p-id="2094" xmlns:xlink="http://www.w3.org/1999/xlink" width="200" height="200"><defs><style type="text/css"></style></defs><path d="M884.2 345.3c-8 3.5-17.1-0.1-20.9-8-5.2-10.7-10.9-21.2-17-31.4-39.9-66.5-99.5-121-169.1-154.9-7.8-3.8-11.4-12.9-7.9-20.9 3.6-8.3 13.4-12.1 21.6-8.2C767 158.8 830 216.4 873.8 289.4c6.7 11.2 12.9 22.7 18.6 34.4 3.9 8.1 0.1 17.9-8.2 21.5zM919.2 495.8c-8.9 0-16 7.2-16 16 0 221.1-179.9 400.9-400.9 400.9s-401-179.8-401-400.9 179.9-400.9 400.9-400.9c8.9 0 16-7.2 16-16 0-8.9-7.2-16-16-16-238.8 0-433 194.3-433 433s194.3 433 433 433 433-194.3 433-433c0-9-7.2-16.1-16-16.1z" fill="#2c2c2c" p-id="2095"></path><path d="M598.4 110.9m-16 0a16 16 0 1 0 32 0 16 16 0 1 0-32 0Z" fill="#2c2c2c" p-id="2096"></path><path d="M903.1 415.6m-16 0a16 16 0 1 0 32 0 16 16 0 1 0-32 0Z" fill="#2c2c2c" p-id="2097"></path><path d="M694.7 495.8H534.3V335.4c0-8.9-7.2-16-16-16-8.9 0-16 7.2-16 16v160.4H341.8c-8.9 0-16 7.2-16 16 0 8.9 7.2 16 16 16h160.4v160.4c0 8.9 7.2 16 16 16 8.9 0 16-7.2 16-16V527.8h160.4c8.9 0 16-7.2 16-16 0.1-8.9-7.1-16-15.9-16z" fill="#2c2c2c" p-id="2098"></path></svg>