<?xml version="1.0" standalone="no"?><!DOCTYPE svg PUBLIC "-//W3C//DTD SVG 1.1//EN" "http://www.w3.org/Graphics/SVG/1.1/DTD/svg11.dtd"><svg t="1628921974171" class="icon" viewBox="0 0 1024 1024" version="1.1" xmlns="http://www.w3.org/2000/svg" p-id="7175" xmlns:xlink="http://www.w3.org/1999/xlink" width="200" height="200"><defs><style type="text/css"></style></defs><path d="M682.7 256.5c-11.7 0-21.3 9.6-21.3 21.3s9.6 21.3 21.3 21.3H768c11.7 0 21.3-9.6 21.3-21.3s-9.6-21.3-21.3-21.3h-85.3zM896 235.1c11.8 0 21.3-9.6 21.3-21.3V106.7c0-23.6-19.1-42.7-42.7-42.7H149.3c-23.6 0-42.7 19.1-42.7 42.7v811.5c0 19.3 12.8 35.7 30.4 40.9 6.9 2.1 14.4 0.3 20.3-3.6l119.9-80L393.5 953c7.2 4.8 16.5 4.8 23.7 0l116.2-77.5 115 76.8c7.7 5.2 17.9 4.7 25.2-1.1l94.5-75.7 97.9 78.4c6.2 5 14.5 7.4 22.1 4.9 17-5.6 29.3-21.7 29.3-40.6V384.5c0-11.8-9.6-21.3-21.3-21.3-11.8 0-21.3 9.6-21.3 21.3v533.7L768 832.8l-107.3 85.4-127.3-85.4-128 85.4-128.7-85.4-127.3 85.4V128c0-11.8 9.6-21.3 21.3-21.3h682.7c11.8 0 21.3 9.6 21.3 21.3v85.7c0 11.9 9.5 21.4 21.3 21.4z m-384 128c47.1 0 85.3-38.2 85.3-85.3 0-47.1-38.2-85.3-85.3-85.3s-85.3 38.2-85.3 85.3c0 47.1 38.2 85.3 85.3 85.3z m0-128c23.6 0 42.7 19.1 42.7 42.7s-19.1 42.7-42.7 42.7-42.7-19.1-42.7-42.7 19.1-42.7 42.7-42.7z m111.9 219.6c-8.3-8.3-21.9-8.3-30.2 0L512 536.4l-81.7-81.7c-8.3-8.3-21.9-8.3-30.2 0s-8.3 21.9 0 30.2l70.3 70.3h-43.8c-11.7 0-21.3 9.6-21.3 21.3s9.6 21.3 21.3 21.3h64v42.7h-64c-11.7 0-21.3 9.6-21.3 21.3s9.6 21.3 21.3 21.3h64v42.7c0 11.7 9.6 21.3 21.3 21.3s21.3-9.6 21.3-21.3v-42.7h64c11.7 0 21.3-9.6 21.3-21.3s-9.6-21.3-21.3-21.3h-64v-42.7h64c11.7 0 21.3-9.6 21.3-21.3s-9.6-21.3-21.3-21.3h-43.6l70.3-70.3c8.3-8.4 8.3-21.9 0-30.2zM256 256.5c-11.7 0-21.3 9.6-21.3 21.3s9.6 21.3 21.3 21.3h85.3c11.7 0 21.3-9.6 21.3-21.3s-9.6-21.3-21.3-21.3H256z" fill="#000000" p-id="7176"></path></svg>