<?xml version="1.0" standalone="no"?><!DOCTYPE svg PUBLIC "-//W3C//DTD SVG 1.1//EN" "http://www.w3.org/Graphics/SVG/1.1/DTD/svg11.dtd"><svg t="1629003565001" class="icon" viewBox="0 0 1024 1024" version="1.1" xmlns="http://www.w3.org/2000/svg" p-id="11083" xmlns:xlink="http://www.w3.org/1999/xlink" width="200" height="200"><defs><style type="text/css"></style></defs><path d="M787.7 321.6h-27.6v-82.7c0-77.2-60.7-137.9-137.9-137.9H401.7c-77.2 0-137.9 60.7-137.9 137.9v82.7h-27.6c-77.2 0-137.9 60.7-137.9 137.9v330.9c0 77.2 60.7 137.9 137.9 137.9h551.5c77.2 0 137.9-60.7 137.9-137.9V459.5c0-77.2-60.7-137.9-137.9-137.9zM319 238.9c0-44.1 38.6-82.7 82.7-82.7h220.6c44.1 0 82.7 38.6 82.7 82.7v82.7H319v-82.7z m551.5 551.4c0 44.1-38.6 82.7-82.7 82.7H236.3c-44.1 0-82.7-38.6-82.7-82.7V459.5c0-44.1 38.6-82.7 82.7-82.7h551.5c44.1 0 82.7 38.6 82.7 82.7v330.8z" fill="#515151" p-id="11084"></path><path d="M649.9 597.3H539.6V487c0-16.5-11-27.6-27.6-27.6-16.5 0-27.6 11-27.6 27.6v110.3H374.1c-16.5 0-27.6 11-27.6 27.6s11 27.6 27.6 27.6h110.3v110.3c0 16.5 11 27.6 27.6 27.6s27.6-11 27.6-27.6V652.5h110.3c16.5 0 27.6-11 27.6-27.6s-11.1-27.6-27.6-27.6z" fill="#515151" p-id="11085"></path></svg>